<?xml version="1.0" encoding="UTF-8"?>
<svg xmlns="http://www.w3.org/2000/svg" xmlns:xlink="http://www.w3.org/1999/xlink" viewBox="0 0 126.05 112.49">
  <defs>
    <style>
      .cls-1 {
        stroke: aqua;
        fill: none;
      }

      .cls-1, .cls-2, .cls-6 {
        fill: none;
        stroke-width: 6px;
      }

      .cls-3 {
        fill: #fff;
      }

      .cls-4 {
        mask: url(#mask);
      }

      .cls-2 {
        stroke: #f0f;
      }

      .cls-5 {
        fill: #00e4ff;
      }
      
      .cls-6 {
        fill: none;
        stroke: aqua;
      }
    </style>
    <mask id="mask" x="-7" y="-20.51" width="140" height="140" maskUnits="userSpaceOnUse">
      <g id="cut-off">
        <rect id="bg" class="cls-3" x="-7" y="-20.51" width="140" height="140"/>
        <circle cx="103" cy="24.49" r="30"/>
      </g>
    </mask>
  </defs>
  <g id="Ebene_1">
    <g class="cls-4">
      <g>
        <rect class="cls-6" x="3" y="9.49" width="120" height="100" rx="12" ry="12" />
        <line class="cls-1" x1="3" y1="34.49" x2="123" y2="34.49"/>
      </g>
    </g>
    <path class="cls-2" d="M18,46.49l25,25-25,25M43,96.49h20"/>
  </g>
  <g id="Ebene_2">
    <g id="Ebene_2-2" data-name="Ebene_2">
      <path class="cls-5" d="M103.37,0h-1.02c-.79,0-1.43.64-1.43,1.43v24.01h3.87V1.43c0-.79-.64-1.43-1.43-1.43h0Z"/>
      <path class="cls-5" d="M110.28,3.67c-.48-.48-1.25-.48-1.72,0l-7.82,7.82c-.13.13-.13.33,0,.46l1.88,1.88c.13.13.33.13.46,0l7.82-7.82c.48-.48.48-1.25,0-1.72l-.61-.61h0Z"/>
      <path class="cls-5" d="M96.73,3.38c-.49-.49-1.28-.49-1.76,0l-.63.63c-.49.49-.49,1.28,0,1.76l7.3,7.3c.14.14.36.14.5,0l1.89-1.89c.14-.14.14-.36,0-.5,0,0-7.3-7.3-7.3-7.3Z"/>
      <path class="cls-5" d="M81.12,12.33l-.51.88c-.39.68-.16,1.56.52,1.95l20.79,12,1.94-3.36-20.79-12c-.68-.39-1.56-.16-1.95.52Z"/>
      <path class="cls-5" d="M90.08,8.81c-.17-.65-.84-1.04-1.49-.86l-.84.23c-.65.17-1.04.84-.86,1.49l2.86,10.68c.05.17.23.28.39.23l2.56-.69c.17-.05.28-.23.23-.39l-2.86-10.68h0Z"/>
      <path class="cls-5" d="M91.13,17.35c-.05-.19-.25-.3-.44-.25l-9.97,2.67c-.67.18-1.06.86-.88,1.53l.23.86c.18.67.86,1.06,1.53.88l9.97-2.67c.19-.05.3-.25.25-.44l-.69-2.58h0Z"/>
      <path class="cls-5" d="M81.19,35.81c-.68.39-.92,1.27-.52,1.95l.51.88c.39.68,1.27.92,1.95.52l20.79-12-1.94-3.36-20.79,12Z"/>
      <path class="cls-5" d="M92.8,31.11l-10.68-2.86c-.65-.17-1.32.21-1.49.86l-.23.84c-.17.65.21,1.32.86,1.49l10.68,2.86c.17.05.35-.06.39-.23l.69-2.56c.05-.17-.06-.35-.23-.39h0Z"/>
      <path class="cls-5" d="M92.6,32.29l-2.58-.69c-.19-.05-.38.06-.44.25l-2.67,9.97c-.18.67.22,1.35.88,1.53l.86.23c.67.18,1.35-.22,1.53-.88l2.67-9.97c.05-.19-.06-.38-.25-.44h0Z"/>
      <path class="cls-5" d="M101.04,49.44c0,.79.64,1.43,1.43,1.43h1.02c.79,0,1.43-.64,1.43-1.43v-24.01h-3.87v24.01h0Z"/>
      <path class="cls-5" d="M103.23,37.04c-.13-.13-.33-.13-.46,0l-7.82,7.82c-.48.48-.48,1.25,0,1.72l.61.61c.48.48,1.25.48,1.72,0l7.82-7.82c.13-.13.13-.33,0-.46l-1.88-1.88h0Z"/>
      <path class="cls-5" d="M104.2,37.8c-.14-.14-.36-.14-.5,0l-1.89,1.89c-.14.14-.14.36,0,.5l7.3,7.3c.49.49,1.28.49,1.76,0l.63-.63c.49-.49.49-1.28,0-1.76l-7.3-7.3Z"/>
      <path class="cls-5" d="M124.71,35.71l-20.79-12-1.94,3.36,20.79,12c.68.39,1.56.16,1.95-.52l.51-.88c.39-.68.16-1.56-.52-1.95Z"/>
      <path class="cls-5" d="M116.08,30.52c-.05-.17-.23-.28-.39-.23l-2.56.69c-.17.05-.28.23-.23.39l2.86,10.68c.17.65.84,1.04,1.49.86l.84-.23c.65-.17,1.04-.84.86-1.49l-2.86-10.68h0Z"/>
      <path class="cls-5" d="M125.77,28.72c-.18-.67-.86-1.06-1.53-.88l-9.97,2.67c-.19.05-.3.25-.25.44l.69,2.58c.05.19.25.3.44.25l9.97-2.67c.67-.18,1.06-.86.88-1.53l-.23-.86h0Z"/>
      <path class="cls-5" d="M124.67,12.23c-.39-.68-1.27-.92-1.95-.52l-20.79,12,1.94,3.36,20.79-12c.68-.39.92-1.27.52-1.95,0,0-.51-.88-.51-.88Z"/>
      <path class="cls-5" d="M124.59,19.44l-10.68-2.86c-.17-.05-.35.06-.39.23l-.69,2.56c-.05.17.06.35.23.39l10.68,2.86c.65.17,1.32-.21,1.49-.86l.23-.84c.17-.65-.21-1.32-.86-1.49Z"/>
      <path class="cls-5" d="M118.05,7.52l-.86-.23c-.67-.18-1.35.22-1.53.88l-2.67,9.97c-.05.19.06.38.25.44l2.58.69c.19.05.38-.06.44-.25l2.67-9.97c.18-.67-.22-1.35-.88-1.53h0Z"/>
    </g>
  </g>
</svg>
