<?xml version="1.0" encoding="UTF-8" standalone="no"?>
<svg
   viewBox="0 0 137.14286 137.14286"
   version="1.1"
   id="svg20"
   sodipodi:docname="logo.svg"
   width="48"
   height="48"
   inkscape:version="1.4 (86a8ad7, 2024-10-11)"
   xmlns:inkscape="http://www.inkscape.org/namespaces/inkscape"
   xmlns:sodipodi="http://sodipodi.sourceforge.net/DTD/sodipodi-0.dtd"
   xmlns="http://www.w3.org/2000/svg"
   xmlns:svg="http://www.w3.org/2000/svg">
  <sodipodi:namedview
     id="namedview20"
     pagecolor="#ffffff"
     bordercolor="#000000"
     borderopacity="0.25"
     inkscape:showpageshadow="2"
     inkscape:pageopacity="0.0"
     inkscape:pagecheckerboard="0"
     inkscape:deskcolor="#d1d1d1"
     showborder="true"
     inkscape:clip-to-page="false"
     inkscape:antialias-rendering="true"
     inkscape:zoom="3.6678533"
     inkscape:cx="80.564837"
     inkscape:cy="74.975736"
     inkscape:window-width="1718"
     inkscape:window-height="1360"
     inkscape:window-x="-7"
     inkscape:window-y="0"
     inkscape:window-maximized="0"
     inkscape:current-layer="svg20" />
  <defs
     id="defs1">
    <style
       id="style1">
      .cls-1, .cls-6 {
        stroke: #00b4d4;
      }

      .cls-1, .cls-2, .cls-6 {
        fill: none;
        stroke-width: 12px;
      }

      .cls-3 {
        fill: #fff;
      }

      .cls-4 {
        mask: url(#mask);
      }

      .cls-2 {
        stroke: #f0f;
      }

      .cls-5 {
        fill: #00b4ff;
      }
    </style>
    <mask
       id="mask"
       x="-7"
       y="-20.51"
       width="140"
       height="140"
       maskUnits="userSpaceOnUse">
      <g
         id="cut-off">
        <rect
           id="bg"
           class="cls-3"
           x="-7"
           y="-20.51"
           width="140"
           height="140" />
        <circle
           cx="103"
           cy="24.49"
           r="30"
           id="circle1" />
      </g>
    </mask>
  </defs>
  <g
     id="g20"
     transform="translate(5.549506,12.32643)">
    <g
       id="Ebene_1">
      <g
         class="cls-4"
         mask="url(#mask)"
         id="g2">
        <g
           id="g1">
          <rect
             class="cls-6"
             x="3"
             y="9.4899998"
             width="120"
             height="100"
             rx="12"
             ry="12"
             id="rect1" />
          <line
             class="cls-1"
             x1="3"
             y1="34.490002"
             x2="123"
             y2="34.490002"
             id="line1" />
        </g>
      </g>
      <path
         class="cls-2"
         d="m 18,46.49 25,25 -25,25 m 25,0 h 35"
         id="path2" />
    </g>
    <g
       id="Ebene_2">
      <g
         id="Ebene_2-2"
         data-name="Ebene_2">
        <path
           class="cls-5"
           d="m 103.37,0 h -1.02 c -0.79,0 -1.43,0.64 -1.43,1.43 v 24.01 h 3.87 V 1.43 C 104.79,0.64 104.15,0 103.36,0 v 0 z"
           id="path3" />
        <path
           class="cls-5"
           d="m 110.28,3.67 c -0.48,-0.48 -1.25,-0.48 -1.72,0 l -7.82,7.82 c -0.13,0.13 -0.13,0.33 0,0.46 l 1.88,1.88 c 0.13,0.13 0.33,0.13 0.46,0 l 7.82,-7.82 c 0.48,-0.48 0.48,-1.25 0,-1.72 l -0.61,-0.61 v 0 z"
           id="path4" />
        <path
           class="cls-5"
           d="m 96.73,3.38 c -0.49,-0.49 -1.28,-0.49 -1.76,0 l -0.63,0.63 c -0.49,0.49 -0.49,1.28 0,1.76 l 7.3,7.3 c 0.14,0.14 0.36,0.14 0.5,0 l 1.89,-1.89 c 0.14,-0.14 0.14,-0.36 0,-0.5 z"
           id="path5" />
        <path
           class="cls-5"
           d="m 81.12,12.33 -0.51,0.88 c -0.39,0.68 -0.16,1.56 0.52,1.95 l 20.79,12 1.94,-3.36 -20.79,-12 c -0.68,-0.39 -1.56,-0.16 -1.95,0.52 z"
           id="path6" />
        <path
           class="cls-5"
           d="M 90.08,8.81 C 89.91,8.16 89.24,7.77 88.59,7.95 L 87.75,8.18 C 87.1,8.35 86.71,9.02 86.89,9.67 l 2.86,10.68 c 0.05,0.17 0.23,0.28 0.39,0.23 l 2.56,-0.69 c 0.17,-0.05 0.28,-0.23 0.23,-0.39 L 90.07,8.82 v 0 z"
           id="path7" />
        <path
           class="cls-5"
           d="m 91.13,17.35 c -0.05,-0.19 -0.25,-0.3 -0.44,-0.25 l -9.97,2.67 c -0.67,0.18 -1.06,0.86 -0.88,1.53 l 0.23,0.86 c 0.18,0.67 0.86,1.06 1.53,0.88 l 9.97,-2.67 c 0.19,-0.05 0.3,-0.25 0.25,-0.44 z"
           id="path8" />
        <path
           class="cls-5"
           d="m 81.19,35.81 c -0.68,0.39 -0.92,1.27 -0.52,1.95 l 0.51,0.88 c 0.39,0.68 1.27,0.92 1.95,0.52 l 20.79,-12 -1.94,-3.36 -20.79,12 z"
           id="path9" />
        <path
           class="cls-5"
           d="M 92.8,31.11 82.12,28.25 c -0.65,-0.17 -1.32,0.21 -1.49,0.86 l -0.23,0.84 c -0.17,0.65 0.21,1.32 0.86,1.49 l 10.68,2.86 c 0.17,0.05 0.35,-0.06 0.39,-0.23 l 0.69,-2.56 c 0.05,-0.17 -0.06,-0.35 -0.23,-0.39 v 0 z"
           id="path10" />
        <path
           class="cls-5"
           d="M 92.6,32.29 90.02,31.6 c -0.19,-0.05 -0.38,0.06 -0.44,0.25 l -2.67,9.97 c -0.18,0.67 0.22,1.35 0.88,1.53 l 0.86,0.23 c 0.67,0.18 1.35,-0.22 1.53,-0.88 l 2.67,-9.97 C 92.9,32.54 92.79,32.35 92.6,32.29 Z"
           id="path11" />
        <path
           class="cls-5"
           d="m 101.04,49.44 c 0,0.79 0.64,1.43 1.43,1.43 h 1.02 c 0.79,0 1.43,-0.64 1.43,-1.43 V 25.43 h -3.87 v 24.01 0 z"
           id="path12" />
        <path
           class="cls-5"
           d="m 103.23,37.04 c -0.13,-0.13 -0.33,-0.13 -0.46,0 l -7.82,7.82 c -0.48,0.48 -0.48,1.25 0,1.72 l 0.61,0.61 c 0.48,0.48 1.25,0.48 1.72,0 l 7.82,-7.82 c 0.13,-0.13 0.13,-0.33 0,-0.46 l -1.88,-1.88 v 0 z"
           id="path13" />
        <path
           class="cls-5"
           d="m 104.2,37.8 c -0.14,-0.14 -0.36,-0.14 -0.5,0 l -1.89,1.89 c -0.14,0.14 -0.14,0.36 0,0.5 l 7.3,7.3 c 0.49,0.49 1.28,0.49 1.76,0 l 0.63,-0.63 c 0.49,-0.49 0.49,-1.28 0,-1.76 z"
           id="path14" />
        <path
           class="cls-5"
           d="m 124.71,35.71 -20.79,-12 -1.94,3.36 20.79,12 c 0.68,0.39 1.56,0.16 1.95,-0.52 l 0.51,-0.88 c 0.39,-0.68 0.16,-1.56 -0.52,-1.95 z"
           id="path15" />
        <path
           class="cls-5"
           d="m 116.08,30.52 c -0.05,-0.17 -0.23,-0.28 -0.39,-0.23 l -2.56,0.69 c -0.17,0.05 -0.28,0.23 -0.23,0.39 l 2.86,10.68 c 0.17,0.65 0.84,1.04 1.49,0.86 l 0.84,-0.23 c 0.65,-0.17 1.04,-0.84 0.86,-1.49 l -2.86,-10.68 v 0 z"
           id="path16" />
        <path
           class="cls-5"
           d="m 125.77,28.72 c -0.18,-0.67 -0.86,-1.06 -1.53,-0.88 l -9.97,2.67 c -0.19,0.05 -0.3,0.25 -0.25,0.44 l 0.69,2.58 c 0.05,0.19 0.25,0.3 0.44,0.25 l 9.97,-2.67 c 0.67,-0.18 1.06,-0.86 0.88,-1.53 z"
           id="path17" />
        <path
           class="cls-5"
           d="m 124.67,12.23 c -0.39,-0.68 -1.27,-0.92 -1.95,-0.52 l -20.79,12 1.94,3.36 20.79,-12 c 0.68,-0.39 0.92,-1.27 0.52,-1.95 0,0 -0.51,-0.88 -0.51,-0.88 z"
           id="path18" />
        <path
           class="cls-5"
           d="m 124.59,19.44 -10.68,-2.86 c -0.17,-0.05 -0.35,0.06 -0.39,0.23 l -0.69,2.56 c -0.05,0.17 0.06,0.35 0.23,0.39 l 10.68,2.86 c 0.65,0.17 1.32,-0.21 1.49,-0.86 l 0.23,-0.84 c 0.17,-0.65 -0.21,-1.32 -0.86,-1.49 z"
           id="path19" />
        <path
           class="cls-5"
           d="m 118.05,7.52 -0.86,-0.23 c -0.67,-0.18 -1.35,0.22 -1.53,0.88 l -2.67,9.97 c -0.05,0.19 0.06,0.38 0.25,0.44 l 2.58,0.69 c 0.19,0.05 0.38,-0.06 0.44,-0.25 l 2.67,-9.97 c 0.18,-0.67 -0.22,-1.35 -0.88,-1.53 z"
           id="path20" />
      </g>
    </g>
  </g>
</svg>
